<?xml version="1.0" encoding="utf-8"?>
<!-- Generator: Adobe Illustrator 27.5.0, SVG Export Plug-In . SVG Version: 6.00 Build 0)  -->
<svg version="1.1" id="BASE" xmlns="http://www.w3.org/2000/svg" xmlns:xlink="http://www.w3.org/1999/xlink" x="0px" y="0px"
	 viewBox="0 0 1898 2372" style="enable-background:new 0 0 1898 2372;" xml:space="preserve">
<g>
	<path style="fill:#E30613;" d="M1078.135,386.183c-110.619-108.133-211.88-183.711-275.554-228.06
		c74.424,258.841-121.712,533.494-264.17,731.714c-248.654,345.988-341.524,547.144-296.05,798.037
		c40.03,220.854,208.98,353.934,243.399,381.045c241.652,190.345,526.393,142.739,602.117,130.078
		c79.365-13.269,277.053-46.321,421.216-212.183c19.457-22.385,103.96-123.147,140.565-304.133
		C1769.187,1091.689,1203.364,508.594,1078.135,386.183z"/>
	<g>
		<path style="fill:#E7364B;" d="M1230.3,1424.694c64.185-10.442,102.295-104.496,85.12-210.076s-83.13-182.706-147.317-172.265
			c-64.186,10.441-102.296,104.496-85.121,210.076S1166.113,1435.135,1230.3,1424.694z"/>
		<path style="fill:#E7364B;" d="M1167.147,990.013c29.307-4.768,46.708-47.713,38.865-95.922
			c-7.841-48.208-37.957-83.424-67.265-78.657c-29.307,4.768-46.708,47.714-38.867,95.922
			C1107.722,959.564,1137.839,994.78,1167.147,990.013z"/>
		<g>
			<path style="fill:#B90E0C;" d="M1577.444,1229.567c-59.017-188.85-166.551-359.078-287.221-515.877
				c-125.161-162.63-265.688-313.429-419.101-449.731c27.516,176.652-41.792,364.081-131.093,514.013
				c-89.647,150.515-206.767,283.437-294.085,435.315c-44.761,77.856-81.477,163.537-100.353,251.309
				c28.973-49.74,71.607-91.046,125.073-103.106c123.691-27.898,244.813,63.247,312.678,165.527
				c62.806,94.651,87.515,209.198,156.707,300.114c65.812,86.478,161.287,142.017,271.133,144.845
				c146.051,3.76,309.194-104.352,367.084-236.561c13.066-29.84,25.225-60.362,35.973-91.074
				C1635.543,1506.167,1618.931,1362.324,1577.444,1229.567z M912.05,1442.406C773.73,1332.909,708.675,1138.792,753.079,968.06
				c25.833-99.324,83.94-186.667,126.142-280.216c42.202-93.548,68.122-203.55,26.955-297.558l76.02,52.625
				c258.247,196.259,587.559,650.343,371.33,979.625C1256.593,1570.144,1034.257,1539.146,912.05,1442.406z"/>
		</g>
		<path style="fill:#C90C0F;" d="M1285.904,1631.044c-53.484,92.637-51.187,194.093,5.13,226.608
			c56.318,32.515,145.33-16.224,198.813-108.861c53.484-92.637,51.188-194.093-5.13-226.608
			C1428.401,1489.668,1339.388,1538.406,1285.904,1631.044z"/>
		<path style="fill:#E7E6F4;" d="M1259.787,857.136c19.413,35.301,32.951,74.385,55.61,107.791
			c5.459,8.049,19.659,5.675,19.326-5.234c-1.321-43.343-21.711-84.359-42.932-121.265c-20.861-36.279-45.833-76.615-79.56-102.068
			c-11.666-8.804-24.774,7.767-18.782,18.781C1212.733,790.586,1240.193,821.512,1259.787,857.136z"/>
		<path style="fill:#E7E6F4;" d="M1355.957,1033.995c23.554,0,23.593-36.605,0-36.605
			C1332.404,997.39,1332.366,1033.995,1355.957,1033.995z"/>
		<path style="fill:#E7E6F4;" d="M708.053,2070.752c-33.485-22.621-72.132-37.479-105.966-60.127
			c-33.398-22.356-63.303-50.796-98.726-69.973c-9.11-4.933-19.313,4.996-14.19,14.19c20.435,36.668,55.799,62.691,90.274,85.219
			c34.626,22.627,76.625,48.758,118.03,55.78C712.659,2098.416,721.429,2079.788,708.053,2070.752z"/>
		<path style="fill:#D70911;" d="M648.318,1665.365C626.013,1528.249,540.356,1428.088,457,1441.648
			c-80.077,13.026-128.903,126.262-112.847,256.71c0.658,5.344,1.424,10.716,2.301,16.112
			c12.735,78.285,46.121,144.522,87.939,184.428c-12.985,8.533-9.704,33.832,9.908,33.832c6.251,0,10.846-2.578,13.781-6.365
			c1.44-1.857,2.48-4.005,3.121-6.282c24.425,15.519,50.608,22.328,76.569,18.105C621.13,1924.627,670.624,1802.48,648.318,1665.365
			z"/>
		<path style="fill:#E7E6F4;" d="M444.301,1896.125c-2.621,0-4.952,0.455-6.99,1.26c-1.05,0.416-2.023,0.925-2.918,1.513
			c-12.985,8.533-9.704,33.832,9.908,33.832c6.251,0,10.846-2.578,13.781-6.365c1.44-1.857,2.48-4.005,3.121-6.282
			C464.189,1909.501,458.563,1896.125,444.301,1896.125z"/>
	</g>
</g>
</svg>
