<svg width="30" height="30" viewBox="0 0 30 30" fill="none" xmlns="http://www.w3.org/2000/svg">
<path fill-rule="evenodd" clip-rule="evenodd" d="M30 15C30 23.2845 23.2845 30 15 30C6.7155 30 0 23.2845 0 15C0 6.7155 6.7155 0 15 0C23.2845 0 30 6.7155 30 15ZM13.5 9C13.5 9.39782 13.658 9.77936 13.9393 10.0607C14.2206 10.342 14.6022 10.5 15 10.5H15.012C15.4098 10.5 15.7914 10.342 16.0727 10.0607C16.354 9.77936 16.512 9.39782 16.512 9C16.512 8.60218 16.354 8.22064 16.0727 7.93934C15.7914 7.65804 15.4098 7.5 15.012 7.5H15C14.6022 7.5 14.2206 7.65804 13.9393 7.93934C13.658 8.22064 13.5 8.60218 13.5 9ZM15 22.5C15.3978 22.5 15.7794 22.342 16.0607 22.0607C16.342 21.7794 16.5 21.3978 16.5 21V13.5C16.5 13.1022 16.342 12.7206 16.0607 12.4393C15.7794 12.158 15.3978 12 15 12C14.6022 12 14.2206 12.158 13.9393 12.4393C13.658 12.7206 13.5 13.1022 13.5 13.5V21C13.5 21.3978 13.658 21.7794 13.9393 22.0607C14.2206 22.342 14.6022 22.5 15 22.5Z" fill="white"/>
</svg>
