<svg width="20" height="20" viewBox="0 0 20 20" fill="none" xmlns="http://www.w3.org/2000/svg">
<path d="M16.7537 0.620949C16.356 0.223356 15.8166 0 15.2542 0C14.6918 0 14.1524 0.223356 13.7547 0.620949L12.0101 2.36639L17.634 7.98976L19.3785 6.24644C19.5755 6.04949 19.7318 5.81566 19.8385 5.55829C19.9451 5.30092 20 5.02507 20 4.74649C20 4.4679 19.9451 4.19205 19.8385 3.93468C19.7318 3.67732 19.5755 3.44348 19.3785 3.24653L16.7537 0.620949ZM16.1344 9.48918L10.5106 3.86581L1.1411 13.2346L0 20L6.76597 18.8579L16.1344 9.48918Z" fill="white"/>
</svg>
